<svg xmlns="http://www.w3.org/2000/svg" viewBox="0 0 260 262" width="520" height="524" xmlns:c2pa="http://c2pa.org/manifest"><metadata><c2pa:manifest>AAAWgmp1bWIAAAAeanVtZGMycGEAEQAQgAAAqgA4m3EDYzJwYQAAABZcanVtYgAAAEdqdW1kYzJtYQARABCAAACqADibcQN1cm46YzJwYTo3ODFmZGZlNS00Mjk1LTQ5ZGQtYmMxZS05YWY1NDAzOTFjYjgAAAADl2p1bWIAAAApanVtZGMyYXMAEQAQgAAAqgA4m3EDYzJwYS5hc3NlcnRpb25zAAAAALxqdW1iAAAARGp1bWRjYm9yABEAEIAAAKoAOJtxE2MycGEuaW5ncmVkaWVudC52MwAAAAAYYzJzaNwl9ros3jEunH6aN6r3qpgAAABwY2JvcqNpZGM6Zm9ybWF0bWltYWdlL3N2Zyt4bWxqaW5zdGFuY2VJRHgseG1wOmlpZDo5N2NiYjdmYS0yOTg2LTQxMDItOTg2Ny04YzYzZjgyYzUwYjRscmVsYXRpb25zaGlwaHBhcmVudE9mAAAB4mp1bWIAAABBanVtZGNib3IAEQAQgAAAqgA4m3ETYzJwYS5hY3Rpb25zLnYyAAAAABhjMnNoTkfvgHIXShrR/NQbL622+AAAAZljYm9yomdhY3Rpb25zgqJmYWN0aW9ua2MycGEub3BlbmVkanBhcmFtZXRlcnOha2luZ3JlZGllbnRzgaJjdXJseC1zZWxmI2p1bWJmPWMycGEuYXNzZXJ0aW9ucy9jMnBhLmluZ3JlZGllbnQudjNkaGFzaFggTZPUf+yoIdg8ZVZcPC5AA8C8AlQFwKF/BVh7nhE4st2kZmFjdGlvbngdY29tLmFudGhyb3BpYy5jbGF1ZGUucHJvdmlkZWRqcGFyYW1ldGVyc6F4H2NvbS5hbnRocm9waWMub3JpZ2luLWNvbmZpZGVuY2VndW5rbm93bmtkZXNjcmlwdGlvbnhmQ2xhdWRlIHByb3ZpZGVkIHRoaXMgZmlsZSBhdCB0aGUgcmVxdWVzdCBvZiBhIHVzZXIgYW5kIG1heSBoYXZlIGNyZWF0ZWQgb3IgbW9kaWZpZWQgdGhlIGZpbGUgY29udGVudHMubXNvZnR3YXJlQWdlbnShZG5hbWVmQ2xhdWRlcmFsbEFjdGlvbnNJbmNsdWRlZPUAAADIanVtYgAAAEBqdW1kY2JvcgARABCAAACqADibcRNjMnBhLmhhc2guZGF0YQAAAAAYYzJzaCI2KDlTHxQ9dn52g90DLokAAACAY2JvcqVjYWxnZnNoYTI1NmNwYWRNAAAAAAAAAAAAAAAAAGRoYXNoWCCnnoLmvWym33lmhSwFKOZdMPxuV1u5v6WuG4YEaie1yGRuYW1lbmp1bWJmIG1hbmlmZXN0amV4Y2x1c2lvbnOBomVzdGFydBiWZmxlbmd0aBkeBAAAAj5qdW1iAAAAJ2p1bWRjMmNsABEAEIAAAKoAOJtxA2MycGEuY2xhaW0udjIAAAACD2Nib3KlY2FsZ2ZzaGEyNTZpc2lnbmF0dXJleE1zZWxmI2p1bWJmPS9jMnBhL3VybjpjMnBhOjc4MWZkZmU1LTQyOTUtNDlkZC1iYzFlLTlhZjU0MDM5MWNiOC9jMnBhLnNpZ25hdHVyZWppbnN0YW5jZUlEeCx4bXA6aWlkOmI1N2VlYmI1LTY5YWUtNDNkZi04ZmU0LTYwZGRlYjc4NTIzMHJjcmVhdGVkX2Fzc2VydGlvbnODomN1cmx4LXNlbGYjanVtYmY9YzJwYS5hc3NlcnRpb25zL2MycGEuaW5ncmVkaWVudC52M2RoYXNoWCBNk9R/7Kgh2DxlVlw8LkADwLwCVAXAoX8FWHueETiy3aJjdXJseCpzZWxmI2p1bWJmPWMycGEuYXNzZXJ0aW9ucy9jMnBhLmFjdGlvbnMudjJkaGFzaFgg5pxKJUtIsMWxUB0V50+REkUPNHapDYMLQ/DQJXQ4gf2iY3VybHgpc2VsZiNqdW1iZj1jMnBhLmFzc2VydGlvbnMvYzJwYS5oYXNoLmRhdGFkaGFzaFggs5hfVwjDh/hdSccvlJ630UboauBr5tWzX6j6L1wKBb50Y2xhaW1fZ2VuZXJhdG9yX2luZm+jZG5hbWVvQW50aHJvcGljIEZpbGVzZ3ZlcnNpb25lMS4wLjBrc3BlY1ZlcnNpb25lMi40LjAAABA4anVtYgAAAChqdW1kYzJjcwARABCAAACqADibcQNjMnBhLnNpZ25hdHVyZQAAABAIY2JvctKEWQISogEmGCFZAgowggIGMIIBjaADAgECAhRA5aAK7sI50L64g/oGQgU9Z1UTADAKBggqhkjOPQQDAzBJMRcwFQYDVQQKEw5BbnRocm9waWMsIFBCQzEuMCwGA1UEAxMlQW50aHJvcGljIENvbnRlbnQgQ3JlZGVudGlhbHMgUm9vdCBDQTAeFw0yNjA4MDcxODQzNTZaFw0yODA4MDYxOTQzNTZaMEQxFzAVBgNVBAoTDkFudGhyb3BpYywgUEJDMSkwJwYDVQQDEyBBbnRocm9waWMgQ2xhdWRlIENvbnRlbnQgU2lnbmluZzBZMBMGByqGSM49AgEGCCqGSM49AwEHA0IABJh6CmvLUBgFFNU0vUKlOVtE6djd17L5SuwX0LemFisBM3dkd/3cyjxFA3Qo5S46fX0/ihY0VZ7mfb9KF703t5OjWDBWMA4GA1UdDwEB/wQEAwIHgDAVBgNVHSUEDjAMBgorBgEEAYPoXgIBMAwGA1UdEwEB/wQCMAAwHwYDVR0jBBgwFoAUzlHiBIFOZFsj+OPEz5o+nMHXXMIwCgYIKoZIzj0EAwMDZwAwZAIwMXMdFJ4BetLLVY7ORuE9noqbbAZOZn/aArXyTwFAZfKrPzxF2vPoJNf1+UCdg1XGAjBwX1zd9WGqYkqmL5SFqw1QySjr1zJfpJM9+1rdDwSPLMOPOjKuiXjoU/pUUeG9RwmhY3BhZFkNngAAAAAAAAAAAAAAAAAAAAAAAAAAAAAAAAAAAAAAAAAAAAAAAAAAAAAAAAAAAAAAAAAAAAAAAAAAAAAAAAAAAAAAAAAAAAAAAAAAAAAAAAAAAAAAAAAAAAAAAAAAAAAAAAAAAAAAAAAAAAAAAAAAAAAAAAAAAAAAAAAAAAAAAAAAAAAAAAAAAAAAAAAAAAAAAAAAAAAAAAAAAAAAAAAAAAAAAAAAAAAAAAAAAAAAAAAAAAAAAAAAAAAAAAAAAAAAAAAAAAAAAAAAAAAAAAAAAAAAAAAAAAAAAAAAAAAAAAAAAAAAAAAAAAAAAAAAAAAAAAAAAAAAAAAAAAAAAAAAAAAAAAAAAAAAAAAAAAAAAAAAAAAAAAAAAAAAAAAAAAAAAAAAAAAAAAAAAAAAAAAAAAAAAAAAAAAAAAAAAAAAAAAAAAAAAAAAAAAAAAAAAAAAAAAAAAAAAAAAAAAAAAAAAAAAAAAAAAAAAAAAAAAAAAAAAAAAAAAAAAAAAAAAAAAAAAAAAAAAAAAAAAAAAAAAAAAAAAAAAAAAAAAAAAAAAAAAAAAAAAAAAAAAAAAAAAAAAAAAAAAAAAAAAAAAAAAAAAAAAAAAAAAAAAAAAAAAAAAAAAAAAAAAAAAAAAAAAAAAAAAAAAAAAAAAAAAAAAAAAAAAAAAAAAAAAAAAAAAAAAAAAAAAAAAAAAAAAAAAAAAAAAAAAAAAAAAAAAAAAAAAAAAAAAAAAAAAAAAAAAAAAAAAAAAAAAAAAAAAAAAAAAAAAAAAAAAAAAAAAAAAAAAAAAAAAAAAAAAAAAAAAAAAAAAAAAAAAAAAAAAAAAAAAAAAAAAAAAAAAAAAAAAAAAAAAAAAAAAAAAAAAAAAAAAAAAAAAAAAAAAAAAAAAAAAAAAAAAAAAAAAAAAAAAAAAAAAAAAAAAAAAAAAAAAAAAAAAAAAAAAAAAAAAAAAAAAAAAAAAAAAAAAAAAAAAAAAAAAAAAAAAAAAAAAAAAAAAAAAAAAAAAAAAAAAAAAAAAAAAAAAAAAAAAAAAAAAAAAAAAAAAAAAAAAAAAAAAAAAAAAAAAAAAAAAAAAAAAAAAAAAAAAAAAAAAAAAAAAAAAAAAAAAAAAAAAAAAAAAAAAAAAAAAAAAAAAAAAAAAAAAAAAAAAAAAAAAAAAAAAAAAAAAAAAAAAAAAAAAAAAAAAAAAAAAAAAAAAAAAAAAAAAAAAAAAAAAAAAAAAAAAAAAAAAAAAAAAAAAAAAAAAAAAAAAAAAAAAAAAAAAAAAAAAAAAAAAAAAAAAAAAAAAAAAAAAAAAAAAAAAAAAAAAAAAAAAAAAAAAAAAAAAAAAAAAAAAAAAAAAAAAAAAAAAAAAAAAAAAAAAAAAAAAAAAAAAAAAAAAAAAAAAAAAAAAAAAAAAAAAAAAAAAAAAAAAAAAAAAAAAAAAAAAAAAAAAAAAAAAAAAAAAAAAAAAAAAAAAAAAAAAAAAAAAAAAAAAAAAAAAAAAAAAAAAAAAAAAAAAAAAAAAAAAAAAAAAAAAAAAAAAAAAAAAAAAAAAAAAAAAAAAAAAAAAAAAAAAAAAAAAAAAAAAAAAAAAAAAAAAAAAAAAAAAAAAAAAAAAAAAAAAAAAAAAAAAAAAAAAAAAAAAAAAAAAAAAAAAAAAAAAAAAAAAAAAAAAAAAAAAAAAAAAAAAAAAAAAAAAAAAAAAAAAAAAAAAAAAAAAAAAAAAAAAAAAAAAAAAAAAAAAAAAAAAAAAAAAAAAAAAAAAAAAAAAAAAAAAAAAAAAAAAAAAAAAAAAAAAAAAAAAAAAAAAAAAAAAAAAAAAAAAAAAAAAAAAAAAAAAAAAAAAAAAAAAAAAAAAAAAAAAAAAAAAAAAAAAAAAAAAAAAAAAAAAAAAAAAAAAAAAAAAAAAAAAAAAAAAAAAAAAAAAAAAAAAAAAAAAAAAAAAAAAAAAAAAAAAAAAAAAAAAAAAAAAAAAAAAAAAAAAAAAAAAAAAAAAAAAAAAAAAAAAAAAAAAAAAAAAAAAAAAAAAAAAAAAAAAAAAAAAAAAAAAAAAAAAAAAAAAAAAAAAAAAAAAAAAAAAAAAAAAAAAAAAAAAAAAAAAAAAAAAAAAAAAAAAAAAAAAAAAAAAAAAAAAAAAAAAAAAAAAAAAAAAAAAAAAAAAAAAAAAAAAAAAAAAAAAAAAAAAAAAAAAAAAAAAAAAAAAAAAAAAAAAAAAAAAAAAAAAAAAAAAAAAAAAAAAAAAAAAAAAAAAAAAAAAAAAAAAAAAAAAAAAAAAAAAAAAAAAAAAAAAAAAAAAAAAAAAAAAAAAAAAAAAAAAAAAAAAAAAAAAAAAAAAAAAAAAAAAAAAAAAAAAAAAAAAAAAAAAAAAAAAAAAAAAAAAAAAAAAAAAAAAAAAAAAAAAAAAAAAAAAAAAAAAAAAAAAAAAAAAAAAAAAAAAAAAAAAAAAAAAAAAAAAAAAAAAAAAAAAAAAAAAAAAAAAAAAAAAAAAAAAAAAAAAAAAAAAAAAAAAAAAAAAAAAAAAAAAAAAAAAAAAAAAAAAAAAAAAAAAAAAAAAAAAAAAAAAAAAAAAAAAAAAAAAAAAAAAAAAAAAAAAAAAAAAAAAAAAAAAAAAAAAAAAAAAAAAAAAAAAAAAAAAAAAAAAAAAAAAAAAAAAAAAAAAAAAAAAAAAAAAAAAAAAAAAAAAAAAAAAAAAAAAAAAAAAAAAAAAAAAAAAAAAAAAAAAAAAAAAAAAAAAAAAAAAAAAAAAAAAAAAAAAAAAAAAAAAAAAAAAAAAAAAAAAAAAAAAAAAAAAAAAAAAAAAAAAAAAAAAAAAAAAAAAAAAAAAAAAAAAAAAAAAAAAAAAAAAAAAAAAAAAAAAAAAAAAAAAAAAAAAAAAAAAAAAAAAAAAAAAAAAAAAAAAAAAAAAAAAAAAAAAAAAAAAAAAAAAAAAAAAAAAAAAAAAAAAAAAAAAAAAAAAAAAAAAAAAAAAAAAAAAAAAAAAAAAAAAAAAAAAAAAAAAAAAAAAAAAAAAAAAAAAAAAAAAAAAAAAAAAAAAAAAAAAAAAAAAAAAAAAAAAAAAAAAAAAAAAAAAAAAAAAAAAAAAAAAAAAAAAAAAAAAAAAAAAAAAAAAAAAAAAAAAAAAAAAAAAAAAAAAAAAAAAAAAAAAAAAAAAAAAAAAAAAAAAAAAAAAAAAAAAAAAAAAAAAAAAAAAAAAAAAAAAAAAAAAAAAAAAAAAAAAAAAAAAAAAAAAAAAAAAAAAAAAAAAAAAAAAAAAAAAAAAAAAAAAAAAAAAAAAAAAAAAAAAAAAAAAAAAAAAAAAAAAAAAAAAAAAAAAAAAAAAAAAAAAAAAAAAAAAAAAAAAAAAAAAAAAAAAAAAAAAAAAAAAAAAAAAAAAAAAAAAAAAAAAAAAAAAAAAAAAAAAAAAAAAAAAAAAAAAAAAAAAAAAAAAAAAAAAAAAAAAAAAAAAAAAAAAAAAAAAAAAAAAAAAAAAAAAAAAAAAAAAAAAAAAAAAAAAAAAAAAAAAAAAAAAAAAAAAAAAAAAAAAAAAAAAAAAAAAAAAAAAAAAAAAAAAAAAAAAAAAAAAAAAAAAAAAAAAAAAAAAAAAAAAAAAAAAAAAAAAAAAAAAAAAAAAAAAAAAAAAAAAAAAAAAAAAAAAAAAAAAAAAAAAAAAAAAAAAAAAAAAAAAAAAAAAAAAAAAAAAAAAAAAAAAAAAAAAAAAAAAAAAAAAAAAAAAAAAAAAAAAAAAAAAAAAAAAAAAAAAAAAAAAAAAAAAAAAAAAAAAAAAAAAAAAAAAAAAAAAAAAAAAAAAAAAAAAAAAAAAAAAAAAAAAAAAAAAAAAAAAAAAAAAAAAAAAAAAAAAAAAAAAAAAAAAAAAAAAAAAAAAAAAAAAAAAAAAAAAAAAAAAAAAAAAAAAAAAAAAAAAAAAAAAAAAAAAAAAAAAAAAAAAAAAAAAAAAAAAAAAAAAAAAAAAAAAAAAAAAAAAAAAAAAAAAAAAAAAAAAAAAAAAAAAAAAAAAAAAAAAAAAAAAAAAAAAAAAAAAAAAAAAAAAAAAAAAAAAAAAAAAAAAAAAAAAAAAAAAAAAAAAAAAAAAAAAAAAAAAAAAAAAAAAAAAAAAAAAAAAAAAAAAAAAAAAAAAAAAAAAAAAAAAAAAAAAAAAAAAAAAAAAAAAAAAAAAAAAAAAAAAAAAAAAAAAAAAAAAAAAAAAAAAAAAAAAAAAAAAAAAAAAAAAAAAAAAAAAAAAAAAAAAAAAAAAAAAAAAAAAAAAAAAAAAAAAAAAAAAAAAAAAAAAAAAAAAAAAAAAAAAAAAAAAAAAAAAAAAAAAAAAAAAAAAAAAAAAAAAAAAAAAAAAAAAAAAAAAAAAAAAAAAAAAAAAAAAAAAAAAAAAAAAAAAAAAAAAAAAAAAAAAAAAAAAAAAAAAAAAAAAAAAAAAAAAAAAAAAAAAAAAAAAAAAAAAAAAAAAAAAAAAAAAAAAAAAAAAAAAAAAAAAAAAAAAAAAAAAAAAAAAAAAAAAAAAAAAAAAAAAAAAAAAAAAAAAAAAAAAAAAAAAAAAAAAAAAAAAAAAAAAAAAAAAAAAAAAAAAAAAAAAAAAAAAAAAAAAAAAAAAAAAAAAAAAAAAAAAAAAAAAAAAAAAAAAAAAAAAAAAAAAAAAAAAAAAAAAAAAAAAAAAAAAAAAAAAAAAAAAAAAAAAAPZYQFMLiYy4ZtGUDO2wveAiC203m7Tao8MSE8qspcKdVWsHWA6b2ZkORgnv3wfIbyPOTkc+K+yyulPWPJQvxPWVsc0=</c2pa:manifest></metadata><rect width="260" height="262" fill="#141a26"/><g fill="#2b3448" stroke="#141a26" stroke-width="1.2" stroke-linejoin="miter"><polygon points="33.0,43.0 87.0,43.0 81.0,90.0 78.0,127.0 42.0,127.0 39.0,90.0"/></g><g fill="#2b3448" stroke="#141a26" stroke-width="1.2" stroke-linejoin="miter"><polygon points="48.0,7.0 72.0,7.0 73.5,21.0 66.0,33.0 54.0,33.0 46.5,21.0"/></g><g fill="#4a5674" stroke="#141a26" stroke-width="1.2" stroke-linejoin="miter"><polygon points="54.0,31.0 66.0,31.0 68.0,43.0 52.0,43.0"/></g><g fill="#4a5674" stroke="#141a26" stroke-width="1.2" stroke-linejoin="miter"><polygon points="46.0,43.0 28.0,45.0 24.0,58.0 37.0,60.0"/><polygon points="74.0,43.0 92.0,45.0 96.0,58.0 83.0,60.0"/></g><g fill="#4a5674" stroke="#141a26" stroke-width="1.2" stroke-linejoin="miter"><polygon points="36.0,62.0 24.0,61.0 26.0,95.0 33.0,95.0"/><polygon points="84.0,62.0 96.0,61.0 94.0,95.0 87.0,95.0"/></g><g fill="#2b3448" stroke="#141a26" stroke-width="1.2" stroke-linejoin="miter"><polygon points="33.0,97.0 25.0,97.0 22.0,127.0 28.0,127.0"/><polygon points="87.0,97.0 95.0,97.0 98.0,127.0 92.0,127.0"/></g><g fill="#2b3448" stroke="#141a26" stroke-width="1.2" stroke-linejoin="miter"><polygon points="29.0,129.0 20.0,129.0 19.0,139.0 27.0,141.0"/><polygon points="91.0,129.0 100.0,129.0 101.0,139.0 93.0,141.0"/></g><g fill="#4a5674" stroke="#141a26" stroke-width="1.2" stroke-linejoin="miter"><polygon points="58.5,45.0 38.0,45.0 40.0,63.0 58.5,69.0"/><polygon points="61.5,45.0 82.0,45.0 80.0,63.0 61.5,69.0"/></g><g fill="#1fb59a" stroke="#141a26" stroke-width="1.2" stroke-linejoin="miter"><polygon points="48.0,72.0 72.0,72.0 73.0,92.0 71.0,112.0 49.0,112.0 47.0,92.0"/></g><g fill="#4a5674" stroke="#141a26" stroke-width="1.2" stroke-linejoin="miter"><polygon points="43.0,114.0 77.0,114.0 79.0,128.0 60.0,133.0 41.0,128.0"/></g><g fill="#1fb59a" stroke="#141a26" stroke-width="1.2" stroke-linejoin="miter"><polygon points="57.0,134.0 39.0,130.0 43.0,186.0 54.0,186.0"/><polygon points="63.0,134.0 81.0,130.0 77.0,186.0 66.0,186.0"/></g><g fill="#4a5674" stroke="#141a26" stroke-width="1.2" stroke-linejoin="miter"><polygon points="48.5,188.0 43.0,193.0 48.5,198.0 54.0,193.0"/><polygon points="71.5,188.0 77.0,193.0 71.5,198.0 66.0,193.0"/></g><g fill="#4a5674" stroke="#141a26" stroke-width="1.2" stroke-linejoin="miter"><polygon points="54.0,201.0 43.0,201.0 45.0,240.0 51.0,240.0"/><polygon points="66.0,201.0 77.0,201.0 75.0,240.0 69.0,240.0"/></g><g fill="#4a5674" stroke="#141a26" stroke-width="1.2" stroke-linejoin="miter"><polygon points="54.0,243.0 43.0,243.0 40.0,251.0 55.0,251.0"/><polygon points="66.0,243.0 77.0,243.0 80.0,251.0 65.0,251.0"/></g><g fill="#2b3448" stroke="#141a26" stroke-width="1.2" stroke-linejoin="miter"><polygon points="173.0,43.0 227.0,43.0 221.0,90.0 218.0,127.0 182.0,127.0 179.0,90.0"/></g><g fill="#2b3448" stroke="#141a26" stroke-width="1.2" stroke-linejoin="miter"><polygon points="188.0,7.0 212.0,7.0 213.5,21.0 206.0,33.0 194.0,33.0 186.5,21.0"/></g><g fill="#4a5674" stroke="#141a26" stroke-width="1.2" stroke-linejoin="miter"><polygon points="194.0,31.0 206.0,31.0 208.0,43.0 192.0,43.0"/></g><g fill="#4a5674" stroke="#141a26" stroke-width="1.2" stroke-linejoin="miter"><polygon points="186.0,43.0 168.0,45.0 164.0,58.0 177.0,60.0"/><polygon points="214.0,43.0 232.0,45.0 236.0,58.0 223.0,60.0"/></g><g fill="#4a5674" stroke="#141a26" stroke-width="1.2" stroke-linejoin="miter"><polygon points="176.0,62.0 164.0,61.0 166.0,95.0 173.0,95.0"/><polygon points="224.0,62.0 236.0,61.0 234.0,95.0 227.0,95.0"/></g><g fill="#2b3448" stroke="#141a26" stroke-width="1.2" stroke-linejoin="miter"><polygon points="173.0,97.0 165.0,97.0 162.0,127.0 168.0,127.0"/><polygon points="227.0,97.0 235.0,97.0 238.0,127.0 232.0,127.0"/></g><g fill="#2b3448" stroke="#141a26" stroke-width="1.2" stroke-linejoin="miter"><polygon points="169.0,129.0 160.0,129.0 159.0,139.0 167.0,141.0"/><polygon points="231.0,129.0 240.0,129.0 241.0,139.0 233.0,141.0"/></g><g fill="#4a5674" stroke="#141a26" stroke-width="1.2" stroke-linejoin="miter"><polygon points="185.0,41.0 215.0,41.0 200.0,66.0"/><polygon points="180.0,57.0 198.0,68.0 198.0,103.0 186.0,92.0"/><polygon points="220.0,57.0 202.0,68.0 202.0,103.0 214.0,92.0"/></g><g fill="#1fb59a" stroke="#141a26" stroke-width="1.2" stroke-linejoin="miter"><polygon points="189.0,101.0 211.0,101.0 212.0,116.0 188.0,116.0"/></g><g fill="#1fb59a" stroke="#141a26" stroke-width="1.2" stroke-linejoin="miter"><polygon points="199.0,118.0 180.0,117.0 178.0,137.0 197.0,140.0"/><polygon points="201.0,118.0 220.0,117.0 222.0,137.0 203.0,140.0"/></g><g fill="#f08a3c" stroke="#141a26" stroke-width="1.2" stroke-linejoin="miter"><polygon points="197.0,143.0 179.0,140.0 183.0,188.0 194.0,188.0"/><polygon points="203.0,143.0 221.0,140.0 217.0,188.0 206.0,188.0"/></g><g fill="#4a5674" stroke="#141a26" stroke-width="1.2" stroke-linejoin="miter"><polygon points="188.5,189.0 183.0,194.0 188.5,199.0 194.0,194.0"/><polygon points="211.5,189.0 217.0,194.0 211.5,199.0 206.0,194.0"/></g><g fill="#4a5674" stroke="#141a26" stroke-width="1.2" stroke-linejoin="miter"><polygon points="195.0,200.0 182.0,200.0 184.0,221.0 189.0,241.0 193.0,221.0"/><polygon points="205.0,200.0 218.0,200.0 216.0,221.0 211.0,241.0 207.0,221.0"/></g><g fill="#4a5674" stroke="#141a26" stroke-width="1.2" stroke-linejoin="miter"><polygon points="194.0,243.0 183.0,243.0 180.0,251.0 195.0,251.0"/><polygon points="206.0,243.0 217.0,243.0 220.0,251.0 205.0,251.0"/></g></svg>